HIERARCHY
ROOT Hips
{
	OFFSET -3.958830 18.904000 13.208200
	CHANNELS 6 Xposition Yposition Zposition Zrotation Yrotation Xrotation 
	JOINT LHipJoint
	{
		OFFSET 0.000000 0.000000 0.000000
		CHANNELS 3 Zrotation Yrotation Xrotation
		JOINT LeftUpLeg
		{
			OFFSET 1.800000 -1.400000 0.085000
			CHANNELS 3 Zrotation Yrotation Xrotation
			JOINT LeftLeg
			{
				OFFSET 2.215000 -6.000000 0.000000
				CHANNELS 3 Zrotation Yrotation Xrotation
				JOINT LeftFoot
				{
					OFFSET 2.500000 -6.900000 0.000000
					CHANNELS 3 Zrotation Yrotation Xrotation
					JOINT LeftToeBase
					{
						OFFSET 0.200000 -0.500000 1.950000
						CHANNELS 3 Zrotation Yrotation Xrotation
						End Site
						{
							OFFSET 0.000000 0.000000 0.000000
						}
					}
				}
			}
		}
	}
	JOINT RHipJoint
	{
		OFFSET 0.000000 0.000000 0.000000
		CHANNELS 3 Zrotation Yrotation Xrotation
		JOINT RightUpLeg
		{
			OFFSET -1.800000 -1.400000 0.085000
			CHANNELS 3 Zrotation Yrotation Xrotation
			JOINT RightLeg
			{
				OFFSET -2.215000 -6.000000 0.000000
				CHANNELS 3 Zrotation Yrotation Xrotation
				JOINT RightFoot
				{
					OFFSET -2.500000 -6.900000 0.000000
					CHANNELS 3 Zrotation Yrotation Xrotation
					JOINT RightToeBase
					{
						OFFSET -0.200000 -0.500000 1.950000
						CHANNELS 3 Zrotation Yrotation Xrotation
						End Site
						{
							OFFSET 0.000000 0.000000 0.000000
						}
					}
				}
			}
		}
	}
	JOINT LowerBack
	{
		OFFSET 0.000000 0.000000 0.000000
		CHANNELS 3 Zrotation Yrotation Xrotation
		JOINT Spine
		{
			OFFSET -0.087000 1.940000 -0.288900
			CHANNELS 3 Zrotation Yrotation Xrotation
			JOINT Spine1
			{
				OFFSET 0.000000 1.950000 0.060000
				CHANNELS 3 Zrotation Yrotation Xrotation
				JOINT Neck
				{
					OFFSET 0.000000 0.000000 0.000000
					CHANNELS 3 Zrotation Yrotation Xrotation
					JOINT Neck1
					{
						OFFSET 0.000000 1.600000 0.340000
						CHANNELS 3 Zrotation Yrotation Xrotation
						JOINT Head
						{
							OFFSET 0.000000 1.667000 -0.240000
							CHANNELS 3 Zrotation Yrotation Xrotation
							End Site
							{
								OFFSET 0.000000 0.000000 0.000000
							}
						}
					}
				}
				JOINT LeftShoulder
				{
					OFFSET 0.000000 0.000000 0.000000
					CHANNELS 3 Zrotation Yrotation Xrotation
					JOINT LeftArm
					{
						OFFSET 2.700000 1.550000 -0.730000
						CHANNELS 3 Zrotation Yrotation Xrotation
						JOINT LeftForeArm
						{
							OFFSET 5.450000 0.000000 0.000000
							CHANNELS 3 Zrotation Yrotation Xrotation
							JOINT LeftHand
							{
								OFFSET 3.450000 0.000000 0.000000
								CHANNELS 3 Zrotation Yrotation Xrotation
								JOINT LeftHandIndex1
								{
									OFFSET 0.750000 0.000000 0.000000
									CHANNELS 3 Zrotation Yrotation Xrotation
									End Site
									{
										OFFSET 0.000000 0.000000 0.000000
									}
								}
							}
						}
					}
				}
				JOINT RightShoulder
				{
					OFFSET 0.000000 0.000000 0.000000
					CHANNELS 3 Zrotation Yrotation Xrotation
					JOINT RightArm
					{
						OFFSET -2.700000 1.550000 -0.730000
						CHANNELS 3 Zrotation Yrotation Xrotation
						JOINT RightForeArm
						{
							OFFSET -5.450000 0.000000 0.000000
							CHANNELS 3 Zrotation Yrotation Xrotation
							JOINT RightHand
							{
								OFFSET -3.450000 0.000000 0.000000
								CHANNELS 3 Zrotation Yrotation Xrotation
								JOINT RightHandIndex1
								{
									OFFSET -0.750000 0.000000 0.000000
									CHANNELS 3 Zrotation Yrotation Xrotation
									End Site
									{
										OFFSET 0.000000 0.000000 0.000000
									}
								}
							}
						}
					}
				}
			}
		}
	}
}
MOTION
Frames: 14
Frame Time: 0.016667
-0.304170 17.275560 -0.826970 -4.242820 -5.089143 7.681501 -15.157985 12.463816 2.905890 0.590809 -1.002969 -6.563299 -5.889968 3.243835 0.174587 -1.223343 5.509638 3.611553 -0.301030 -1.236010 -0.346010 18.475099 -10.704543 2.956298 0.234063 0.633632 -7.591304 8.635206 -5.300476 2.919297 -0.498436 -4.376035 2.861397 -0.368670 2.055550 1.302130 -3.854676 -0.488959 -6.966435 8.998729 2.482288 1.643053 -2.022303 1.879899 7.112256 3.153810 -0.929948 -9.246254 -1.390969 6.838105 25.686957 -5.343650 3.748560 -1.647000 -17.491744 -10.101898 3.805243 -52.692858 -7.928776 1.032481 -26.718466 -22.058970 1.263643 -4.974884 2.598700 1.060530 1.146880 -0.297040 0.643970 11.868365 11.920628 6.315071 54.365341 10.750421 -2.587369 28.756846 27.475862 4.179752 1.516717 -1.341653 -0.906020 0.771170 0.741350 0.042700 
-0.300970 17.276050 -0.826640 -4.326657 -5.037905 7.702443 -15.144927 12.466751 2.894764 0.622138 -1.017200 -6.682499 -5.838591 3.257522 0.397214 -1.228931 5.491734 3.616218 -0.297470 -1.233460 -0.340470 18.485502 -10.717143 2.964512 0.281449 0.627316 -7.573564 8.639729 -5.298927 2.915458 -0.500874 -4.373427 2.860999 -0.368330 2.050330 1.297280 -3.888435 -0.467080 -6.965468 9.334316 2.443040 1.656801 -2.274994 1.862395 6.991716 3.174451 -0.999569 -9.179169 -1.510426 6.776629 25.718694 -5.310220 3.639370 -1.713120 -17.581480 -9.916780 3.716807 -52.594301 -7.927399 1.104438 -26.753647 -21.896023 1.266768 -4.968559 2.596033 1.063880 1.139840 -0.295120 0.643370 11.875807 11.753047 6.273222 54.544437 10.718606 -2.568372 28.665566 27.458245 4.167927 1.521020 -1.339322 -0.906580 0.772770 0.738080 0.041730 
-0.300550 17.276110 -0.826660 -4.305411 -5.007774 7.799743 -15.146261 12.463034 2.894760 0.550787 -1.038321 -6.770624 -5.797751 3.237307 0.373239 -1.239154 5.498400 3.612915 -0.303770 -1.247540 -0.344690 18.486775 -10.712484 2.962476 0.361903 0.640180 -7.628648 8.445637 -5.263126 2.828501 -0.497471 -4.365885 2.858037 -0.372850 2.058820 1.311480 -3.888732 -0.469126 -6.957048 9.344181 2.450731 1.581360 -2.342799 1.867515 6.797496 3.208515 -0.979687 -9.033190 -1.472860 6.751517 25.603660 -5.460970 3.646400 -1.650010 -17.693658 -9.571107 3.542513 -52.512638 -7.999930 1.308193 -26.714694 -21.534437 1.227406 -4.988036 2.599562 1.064210 1.149280 -0.298970 0.640550 11.904996 11.364182 6.136393 54.672050 10.712801 -2.432537 28.752149 27.340260 4.205365 1.515207 -1.341733 -0.907040 0.767940 0.750350 0.039460 
-0.300220 17.277080 -0.828000 -4.423346 -4.952571 7.885542 -15.136608 12.468182 2.883637 0.640826 -1.064935 -6.911128 -5.695611 3.224444 0.514822 -1.251672 5.495982 3.604461 -0.304560 -1.254700 -0.351990 18.495866 -10.716443 2.970790 0.584415 0.653996 -7.677998 8.276920 -5.239194 2.808218 -0.500241 -4.354983 2.850476 -0.376630 2.060420 1.331080 -3.915461 -0.462792 -6.953304 9.675401 2.423232 1.586865 -2.545534 1.847550 6.534622 3.238612 -1.054341 -8.867000 -1.595286 6.810849 25.542541 -5.433500 3.585020 -1.791210 -17.920915 -9.166956 3.342687 -52.309746 -8.003891 1.484025 -26.697803 -21.237974 1.199872 -5.001616 2.611998 1.068540 1.151190 -0.296470 0.637080 12.030300 10.963853 5.992001 54.625734 10.680238 -2.281341 29.037177 27.190611 4.297220 1.510234 -1.344294 -0.899230 0.757480 0.765470 0.039160 
-0.300360 17.279140 -0.827800 -4.404358 -4.919336 7.844247 -15.139695 12.481120 2.883743 0.622564 -1.065164 -6.876582 -5.566880 3.203277 0.541001 -1.259169 5.493088 3.603590 -0.297290 -1.252550 -0.349430 18.492045 -10.710959 2.975234 0.631207 0.636245 -7.575909 8.188569 -5.228736 2.727308 -0.513297 -4.347158 2.849284 -0.377820 2.056590 1.337550 -3.904937 -0.492809 -6.961363 9.650109 2.444637 1.671741 -2.484190 1.881504 6.350211 3.210362 -1.116601 -8.788283 -1.725024 6.789248 25.763932 -5.275980 3.429200 -2.164930 -18.154547 -8.967905 3.209264 -52.106916 -8.053229 1.640410 -26.808967 -20.948815 1.189953 -4.994527 2.605719 1.087960 1.140220 -0.283800 0.641280 12.311483 10.809943 5.967532 54.192467 10.466877 -2.303687 29.506019 27.236920 4.450980 1.508154 -1.335304 -0.898570 0.762210 0.766940 0.038580 
-0.299530 17.279130 -0.824910 -4.448968 -4.781357 7.888100 -15.136409 12.481085 2.875681 0.667290 -1.067805 -6.929964 -5.518464 3.195045 0.566220 -1.253191 5.484844 3.605424 -0.300440 -1.247340 -0.367320 18.497715 -10.705265 2.982598 0.789360 0.614297 -7.485920 8.009928 -5.182446 2.536762 -0.513878 -4.345925 2.855295 -0.376280 2.064470 1.341870 -3.918502 -0.499286 -6.958476 9.796862 2.418970 1.620641 -2.537534 1.846311 6.175113 3.162231 -1.156878 -8.688319 -1.797679 6.812345 25.681106 -5.080990 3.302280 -2.173660 -18.248204 -8.704734 3.094652 -52.016669 -8.073701 1.788224 -27.011506 -20.726992 1.226099 -5.002268 2.608631 1.078740 1.145740 -0.284860 0.645980 12.477328 10.524358 5.882178 53.994640 10.297042 -2.250996 29.856472 27.199387 4.549393 1.506193 -1.336530 -0.891310 0.763120 0.771090 0.048480 
-0.296750 17.281560 -0.825830 -4.537472 -4.626455 7.816915 -15.135601 12.489699 2.873137 0.761042 -1.054584 -6.887433 -5.499153 3.195942 0.543599 -1.245752 5.491343 3.598150 -0.310140 -1.255670 -0.383450 18.499881 -10.694203 2.991260 0.968787 0.580421 -7.304528 7.798148 -5.149741 2.367463 -0.517667 -4.345784 2.856797 -0.384470 2.064990 1.350660 -3.923404 -0.531659 -6.969703 10.001580 2.371930 1.664842 -2.564126 1.793963 6.253362 3.168345 -1.190568 -8.759524 -1.889353 6.767993 25.883445 -5.056800 3.209350 -2.169890 -18.407015 -8.939300 3.169642 -51.904654 -8.077083 1.752249 -26.976878 -20.694265 1.200352 -5.006008 2.611207 1.078320 1.146770 -0.281610 0.643640 12.615652 10.729845 5.990780 53.701089 10.089872 -2.436516 30.073889 27.440773 4.638896 1.502706 -1.331894 -0.883600 0.757050 0.781930 0.052520 
-0.296390 17.282670 -0.825780 -4.596323 -4.529853 7.796228 -15.134128 12.499368 2.866154 0.802769 -1.056679 -6.940026 -5.465774 3.205568 0.666084 -1.244042 5.485236 3.591481 -0.313370 -1.258920 -0.387770 18.501398 -10.685631 3.001899 1.051170 0.557075 -7.167919 7.717737 -5.123574 2.167189 -0.522587 -4.343137 2.854166 -0.389790 2.058900 1.355660 -3.927898 -0.559263 -6.976621 10.123629 2.326350 1.705861 -2.604227 1.752201 6.225285 3.147796 -1.223588 -8.766294 -1.966529 6.809622 26.007701 -4.900380 3.157350 -2.322460 -18.405533 -8.938211 3.180118 -51.912371 -8.060701 1.744318 -26.984231 -20.680766 1.193304 -5.006162 2.614924 1.079940 1.141360 -0.276810 0.636800 12.643871 10.708615 5.993290 53.646858 10.021001 -2.475553 30.215913 27.486944 4.696570 1.504562 -1.325706 -0.875670 0.751540 0.790280 0.052910 
-0.297610 17.281290 -0.825290 -4.486777 -4.636290 7.814569 -15.138665 12.498248 2.868588 0.691584 -1.050894 -6.968081 -5.571146 3.229424 0.731855 -1.237550 5.496089 3.588520 -0.325540 -1.270920 -0.406820 18.497796 -10.682146 2.997067 0.941301 0.555636 -7.160198 7.694295 -5.116519 2.104640 -0.515849 -4.350270 2.854536 -0.395200 2.072940 1.359970 -3.915694 -0.569454 -6.970645 9.898921 2.401023 1.656939 -2.503687 1.826120 6.282781 3.046630 -1.219878 -8.808755 -1.964957 6.867168 25.946871 -4.644390 3.059050 -2.098440 -18.168188 -9.002463 3.237597 -52.129454 -8.091491 1.720721 -26.912262 -20.714503 1.169170 -5.017692 2.620498 1.070040 1.149960 -0.285970 0.637060 12.627764 10.772085 6.021705 53.705920 9.960160 -2.529711 30.222147 27.474087 4.681703 1.502028 -1.326065 -0.874080 0.751260 0.802040 0.059700 
-0.299150 17.281240 -0.822030 -4.364757 -4.819807 7.790017 -15.147186 12.500281 2.873215 0.609582 -1.029769 -6.886759 -5.665453 3.259565 0.772400 -1.225838 5.509287 3.587825 -0.337720 -1.282600 -0.416400 18.488688 -10.682946 2.991464 0.773861 0.541754 -7.093956 7.711664 -5.125863 2.083610 -0.510318 -4.360272 2.858311 -0.402310 2.080760 1.356880 -3.888719 -0.575076 -6.968893 9.570617 2.511701 1.633771 -2.282784 1.930670 6.338095 3.009050 -1.208830 -8.891463 -1.945979 6.894218 25.994698 -4.617310 3.093030 -1.860810 -18.116563 -9.113638 3.312193 -52.299055 -7.999589 1.615735 -26.814287 -20.790244 1.147214 -5.023533 2.615335 1.062650 1.155700 -0.292280 0.635930 12.686392 10.938273 6.115713 53.573589 9.792616 -2.659049 30.334690 27.517439 4.688936 1.502789 -1.323046 -0.875640 0.753510 0.806660 0.062460 
-0.296810 17.281510 -0.818740 -4.407781 -4.851208 7.748838 -15.144849 12.491126 2.881234 0.702977 -1.010654 -6.747671 -5.890206 3.286188 0.622726 -1.207848 5.531635 3.577316 -0.336050 -1.282720 -0.417450 18.492278 -10.676149 2.993198 0.757993 0.519417 -6.959081 7.755351 -5.133976 1.998012 -0.518653 -4.371136 2.852739 -0.408130 2.074860 1.363480 -3.897569 -0.575486 -6.979239 9.696744 2.513675 1.615740 -2.306426 1.925082 6.438815 2.996946 -1.268967 -8.992022 -2.061164 6.948620 26.156199 -4.533530 3.095420 -1.830550 -18.051850 -9.293520 3.444949 -52.443514 -7.837708 1.430887 -26.739420 -20.997525 1.132254 -5.014769 2.626068 1.063600 1.150320 -0.286090 0.636920 12.646259 11.157178 6.199589 53.582971 9.748823 -2.731945 30.283022 27.345184 4.628798 1.508406 -1.324042 -0.866230 0.743790 0.805340 0.065240 
-0.295320 17.282220 -0.818340 -4.391257 -4.810219 7.743286 -15.150426 12.486107 2.886046 0.739219 -1.007571 -6.707730 -6.038919 3.304247 0.540894 -1.212659 5.563131 3.565573 -0.347790 -1.304750 -0.422190 18.488425 -10.665801 2.992651 0.723381 0.517719 -6.891262 7.821774 -5.148260 1.924351 -0.516754 -4.386670 2.842857 -0.417030 2.080860 1.370880 -3.884560 -0.586788 -6.981895 9.621099 2.539329 1.576476 -2.197407 1.936994 6.496755 3.016224 -1.256125 -9.043130 -2.044883 6.910083 26.162447 -4.693160 3.111990 -1.647840 -18.013808 -9.376032 3.481300 -52.614284 -7.822555 1.389382 -26.639543 -21.044736 1.094093 -5.025391 2.630046 1.067340 1.156280 -0.293150 0.630130 12.585920 11.237192 6.262992 53.549726 9.641945 -2.827786 30.314475 27.405337 4.634578 1.502754 -1.324814 -0.871750 0.738080 0.819160 0.059840 
-0.291900 17.281800 -0.819060 -4.467656 -4.594445 7.777294 -15.147918 12.483979 2.879207 0.799852 -1.013512 -6.785110 -6.044683 3.310472 0.562283 -1.221184 5.568062 3.568814 -0.359010 -1.315670 -0.429000 18.492580 -10.658638 3.000381 0.815969 0.510997 -6.839618 7.835335 -5.134738 1.783961 -0.511628 -4.392902 2.846283 -0.418210 2.092140 1.363530 -3.895832 -0.591492 -6.982541 9.794652 2.450405 1.547865 -2.276455 1.843328 6.493584 3.051235 -1.244265 -9.037211 -2.021449 6.917691 26.056681 -4.773520 3.148600 -1.511670 -18.039445 -9.391808 3.479951 -52.680210 -7.824568 1.385424 -26.553451 -21.017440 1.069504 -5.034206 2.618058 1.065470 1.164000 -0.302850 0.628470 12.528466 11.199775 6.255599 53.654793 9.619747 -2.838813 30.198238 27.325260 4.582837 1.499501 -1.318881 -0.883470 0.747880 0.825280 0.058660 
-0.289900 17.279200 -0.818700 -4.503570 -4.545499 7.844110 -15.144288 12.475431 2.876448 0.834839 -1.020381 -6.850257 -6.131960 3.325242 0.562927 -1.232482 5.575159 3.572476 -0.359400 -1.313640 -0.424320 18.497326 -10.656786 3.003096 0.825289 0.517212 -6.871026 7.924278 -5.130579 1.717598 -0.507636 -4.390949 2.854872 -0.410490 2.100330 1.349770 -3.908635 -0.578483 -6.979396 9.893931 2.409088 1.522481 -2.363748 1.805108 6.401886 3.047070 -1.237744 -8.959597 -1.991810 6.981433 25.880563 -4.732260 3.191880 -1.638540 -17.795895 -9.152799 3.380527 -52.834500 -7.929922 1.527940 -26.790399 -20.885207 1.108662 -5.039703 2.598753 1.067640 1.167580 -0.308610 0.629500 12.278680 10.931746 6.151604 54.017147 9.748285 -2.705086 30.023393 27.116833 4.512822 1.496199 -1.308864 -0.898120 0.767740 0.823440 0.055470 
